<svg width="100" height="100" viewBox="0 0 100 100" fill="none" xmlns="http://www.w3.org/2000/svg">
<path d="M13.9053 0.0162987C13.1703 -0.0637013 12.4903 0.151299 11.9833 0.650299L0.609276 12.0313C-0.389724 13.0263 -0.120724 14.8753 1.12728 16.1213L34.9993 49.9983L1.12728 83.8713C-0.120724 85.1183 -0.389724 86.9533 0.609276 87.9573L11.9833 99.3343C12.9873 100.342 14.8343 100.199 16.0763 98.9563L49.9493 65.0753L83.8273 98.9563C85.0733 100.199 86.9153 100.342 87.9193 99.3343L99.2973 87.9573C100.292 86.9533 100.028 85.1183 98.7813 83.8713L64.9083 49.9983L98.7813 16.1213C100.028 14.8753 100.292 13.0263 99.2973 12.0313L87.9193 0.650299C86.9153 -0.344701 85.0733 -0.0797013 83.8273 1.1633L49.9493 35.0443L16.0763 1.1633C15.4533 0.537299 14.6423 0.0962987 13.9053 0.0162987Z" fill="#FF0000"/>
</svg>
