<svg width="40" height="40" viewBox="0 0 40 40" fill="none" xmlns="http://www.w3.org/2000/svg">
<path d="M5.56212 0.00651948C5.26812 -0.0254805 4.99612 0.0605196 4.79332 0.26012L0.24371 4.81252C-0.15589 5.21052 -0.0482898 5.95012 0.450912 6.44852L13.9997 19.9993L0.450912 33.5485C-0.0482898 34.0473 -0.15589 34.7813 0.24371 35.1829L4.79332 39.7337C5.19492 40.1368 5.93372 40.0796 6.43052 39.5825L19.9797 26.0301L33.5309 39.5825C34.0293 40.0796 34.7661 40.1368 35.1677 39.7337L39.7189 35.1829C40.1168 34.7813 40.0112 34.0473 39.5125 33.5485L25.9633 19.9993L39.5125 6.44852C40.0112 5.95012 40.1168 5.21052 39.7189 4.81252L35.1677 0.26012C34.7661 -0.13788 34.0293 -0.0318805 33.5309 0.46532L19.9797 14.0177L6.43052 0.46532C6.18132 0.21492 5.85692 0.0385195 5.56212 0.00651948Z" fill="#FF0000"/>
</svg>
