<svg width="130" height="130" viewBox="0 0 130 130" fill="none" xmlns="http://www.w3.org/2000/svg">
<path d="M101.172 35.2542H28.7625C25.9025 35.2542 23.5625 37.1262 23.5625 39.4142C23.5625 41.7022 25.9025 43.5742 28.7625 43.5742H101.172C104.032 43.5742 106.372 41.7022 106.372 39.4142C106.372 37.1262 104.032 35.2542 101.172 35.2542Z" fill="white"/>
<path d="M101.172 61.1501H28.7625C25.9025 61.1501 23.5625 63.0221 23.5625 65.3101C23.5625 67.5981 25.9025 69.4701 28.7625 69.4701H101.172C104.032 69.4701 106.372 67.5981 106.372 65.3101C106.372 63.0221 104.032 61.1501 101.172 61.1501Z" fill="white"/>
<path d="M101.172 86.9421H28.7625C25.9025 86.9421 23.5625 88.8141 23.5625 91.1022C23.5625 93.3902 25.9025 95.2622 28.7625 95.2622H101.172C104.032 95.2622 106.372 93.3902 106.372 91.1022C106.372 88.8141 104.032 86.9421 101.172 86.9421Z" fill="white"/>
</svg>
