<svg width="480" height="432" viewBox="0 0 480 432" fill="none" xmlns="http://www.w3.org/2000/svg">
<path d="M440 48H224V40C223.988 29.395 219.77 19.2278 212.271 11.7289C204.772 4.23001 194.605 0.0119105 184 0H40C29.395 0.0119105 19.2278 4.23001 11.7289 11.7289C4.23001 19.2278 0.0119105 29.395 0 40V392C0.0119105 402.605 4.23001 412.772 11.7289 420.271C19.2278 427.77 29.395 431.988 40 432H440C450.605 431.988 460.772 427.77 468.271 420.271C475.77 412.772 479.988 402.605 480 392V88C479.988 77.395 475.77 67.2278 468.271 59.7289C460.772 52.23 450.605 48.0119 440 48V48ZM440 64C446.363 64.0074 452.463 66.5384 456.962 71.0376C461.462 75.5369 463.993 81.6371 464 88V104.022C457.086 98.8075 448.66 95.991 440 96H224V64H440ZM464 392C463.993 398.363 461.462 404.463 456.962 408.962C452.463 413.462 446.363 415.993 440 416H40C33.6371 415.993 27.5369 413.462 23.0376 408.962C18.5384 404.463 16.0074 398.363 16 392V40C16.0074 33.6371 18.5384 27.5369 23.0376 23.0376C27.5369 18.5384 33.6371 16.0074 40 16H184C190.363 16.0074 196.463 18.5384 200.962 23.0376C205.462 27.5369 207.993 33.6371 208 40V104C208 106.122 208.843 108.157 210.343 109.657C211.843 111.157 213.878 112 216 112H440C446.363 112.007 452.463 114.538 456.962 119.038C461.462 123.537 463.993 129.637 464 136V392Z" fill="white"/>
</svg>
