<svg width="87" height="78" viewBox="0 0 87 78" fill="none" xmlns="http://www.w3.org/2000/svg">
<path d="M79.7503 8.6667H40.6V7.22222C40.5978 5.30743 39.8333 3.47168 38.4741 2.11772C37.115 0.763755 35.2721 0.00215051 33.35 0H7.25C5.32784 0.00215051 3.48504 0.763755 2.12586 2.11772C0.766689 3.47168 0.00215878 5.30743 0 7.22222V70.7778C0.00215878 72.6925 0.766689 74.5283 2.12586 75.882C3.48504 77.2365 5.32784 77.9977 7.25 78H79.7503C81.6718 77.9977 83.5147 77.2365 84.8742 75.882C86.2336 74.5283 86.9977 72.6925 87 70.7778V15.8889C86.9977 13.9741 86.2336 12.1384 84.8742 10.7844C83.5147 9.43042 81.6718 8.6688 79.7503 8.6667ZM79.7503 11.5556C80.9032 11.5569 82.0092 12.0139 82.824 12.8262C83.6403 13.6386 84.0987 14.74 84.1003 15.8889V18.7817C82.8467 17.8402 81.3193 17.3317 79.7503 17.3333H40.6V11.5556H79.7503ZM84.1003 70.7778C84.0987 71.9266 83.6403 73.028 82.824 73.8403C82.0092 74.6529 80.9032 75.1095 79.7503 75.111H7.25C6.09673 75.1095 4.99106 74.6529 4.17556 73.8403C3.36008 73.028 2.90134 71.9266 2.9 70.7778V7.22222C2.90134 6.07337 3.36008 4.97194 4.17556 4.15957C4.99106 3.34721 6.09673 2.89022 7.25 2.88889H33.35C34.5033 2.89022 35.6089 3.34721 36.4243 4.15957C37.24 4.97194 37.6988 6.07337 37.7 7.22222V18.7778C37.7 19.1609 37.8528 19.5283 38.1247 19.7992C38.3966 20.07 38.7654 20.2222 39.15 20.2222H79.7503C80.9032 20.2234 82.0092 20.6805 82.824 21.493C83.6403 22.3053 84.0987 23.4067 84.1003 24.5555V70.7778Z" fill="white"/>
</svg>
